<?xml version="1.0" standalone="no"?><!DOCTYPE svg PUBLIC "-//W3C//DTD SVG 1.1//EN" "http://www.w3.org/Graphics/SVG/1.1/DTD/svg11.dtd"><svg class="icon" width="200px" height="200.00px" viewBox="0 0 1024 1024" version="1.1" xmlns="http://www.w3.org/2000/svg"><path fill="#cccccc" d="M974.387 972.090c-8.635-128.983-72.38-248.988-174.881-329.257l-6.16-4.255-0.056 0.083c-5.83-3.566-12.475-5.471-19.316-5.471-23.5 0-37.523 11.329-37.523 30.312 0 11.053 5.112 21.441 13.69 28.487l-0.094 0.167 5.441 3.896c85.96 61.453 134.357 154.654 143.835 277.060l0.103 1.337c-0.087 0.949-0.138 2.051-0.138 3.165 0 0.017 0 0.038 0 0.055 0 20.581 16.769 37.351 37.454 37.351 19.991 0 36.322-15.662 37.394-35.386h0.744l-0.491-7.543zM853.762 344.761c0-186.207-153.314-337.71-341.774-337.71s-341.775 151.501-341.775 337.711c0 100.328 44.362 193.918 122.118 258.437-139.58 74.496-232.228 216.605-242.715 373.496l-0.433 6.541c-0.007 0.135-0.018 0.269-0.025 0.405l-0.040 0.596h0.022c-0.011 0.319-0.022 0.637-0.022 0.956 0 17.539 14.217 31.755 31.755 31.755s31.756-14.217 31.756-31.755c0-0.322-0.015-0.639-0.022-0.956h0.66l0.499-6.523c11.508-149.1 106.007-279.657 241.083-333.457 40.329 18.735 101.891 38.242 157.113 38.242 51.16 0 100.842-11.272 148.148-33.765l34.651-20.114 28.293-18.569c83.056-64.654 130.707-161.365 130.707-265.288zM511.988 614.503c-150.592 0-273.096-121.025-273.096-269.765 0-148.714 122.504-269.711 273.096-269.711 150.604 0 273.125 120.999 273.125 269.711-0.001 148.74-122.519 269.765-273.125 269.765z"  /></svg>