<?xml version="1.0" standalone="no"?><!DOCTYPE svg PUBLIC "-//W3C//DTD SVG 1.1//EN" "http://www.w3.org/Graphics/SVG/1.1/DTD/svg11.dtd"><svg class="icon" width="200px" height="200.00px" viewBox="0 0 1024 1024" version="1.1" xmlns="http://www.w3.org/2000/svg"><path fill="#333333" d="M874.784 746.667H682.549a21.333 21.333 0 0 1 0-42.901h192a21.333 21.333 0 1 1 0 42.9z m0-160.118H682.549a21.333 21.333 0 0 1 0-42.9h192a21.333 21.333 0 1 1 0 42.9z m0-160.117H682.549a21.333 21.333 0 1 1 0-42.9h192a21.333 21.333 0 1 1 0 42.9zM405.45 468.864H192.117a21.333 21.333 0 0 1 0-42.9h213.334a21.333 21.333 0 1 1 0 42.9z m0-192H192.117a21.333 21.333 0 0 1 0-42.9h213.334a21.333 21.333 0 1 1 0 42.9z m21.333 725.1h-42.901v-276.63A21.568 21.568 0 0 0 362.549 704h-128a21.568 21.568 0 0 0-21.333 21.333v277.334H170.55V725.333a64 64 0 0 1 64-64h128.235a64 64 0 0 1 64 64v277.334z"  /><path fill="#333333" d="M1002.55 522.784a21.333 21.333 0 0 1 21.333 21.333v458.55a21.568 21.568 0 0 1-21.568 21.333H576.117v-42.667h405.1V544.117a21.333 21.333 0 0 1 21.332-21.333z m-0.235-100.806a21.099 21.099 0 0 1-21.099-21.099v-69.86a64 64 0 0 0-64-64H576.117v-42.902h341.1a106.901 106.901 0 0 1 106.666 106.667v70.33a21.099 21.099 0 0 1-21.1 21.098z"  /><path fill="#333333" d="M576.117 1024H21.451a21.333 21.333 0 0 1-21.334-21.333v-896A106.901 106.901 0 0 1 106.784 0h384A106.901 106.901 0 0 1 597.45 106.667v896A21.333 21.333 0 0 1 576.117 1024zM43.018 981.333H554.55V106.667a64 64 0 0 0-64-64H106.784a64 64 0 0 0-64 64v874.666z"  /></svg>