<?xml version="1.0" standalone="no"?><!DOCTYPE svg PUBLIC "-//W3C//DTD SVG 1.1//EN" "http://www.w3.org/Graphics/SVG/1.1/DTD/svg11.dtd"><svg class="icon" width="200px" height="200.00px" viewBox="0 0 1024 1024" version="1.1" xmlns="http://www.w3.org/2000/svg"><path fill="#333333" d="M881.599 289.445c-78.245-77.985-182.267-120.932-292.902-120.932h-470.245l128.369-128.37-37.717-37.717-192.75 192.761 192.751 192.757 37.717-37.717-128.369-128.375h470.244c96.423 0 187.075 37.423 255.251 105.37 68.154 67.925 105.686 158.229 105.686 254.275v26.64c0 96.049-37.532 186.351-105.686 254.276-68.176 67.953-158.82 105.37-255.251 105.37h-534.629v53.337h534.628c110.637 0 214.658-42.949 292.902-120.927 78.266-78.011 121.371-181.726 121.371-292.057v-26.641c0-110.323-43.104-214.046-121.369-292.048zM881.599 289.445z"  /></svg>