<?xml version="1.0" standalone="no"?><!DOCTYPE svg PUBLIC "-//W3C//DTD SVG 1.1//EN" "http://www.w3.org/Graphics/SVG/1.1/DTD/svg11.dtd"><svg class="icon" width="200px" height="200.00px" viewBox="0 0 1024 1024" version="1.1" xmlns="http://www.w3.org/2000/svg"><path fill="#333333" d="M997.33 719.531c-0.078 0.001-0.169 0.001-0.26 0.001-6.933 0-13.181-2.937-17.567-7.633l-214.826-232.667-137.626 157.286-306.927-403.046-272.701 454.747c-3.989 8.362-12.374 14.036-22.086 14.036-13.473 0-24.395-10.922-24.395-24.395 0-5.575 1.87-10.714 5.018-14.822l309.431-515.126 314.208 412.512 133.985-153.281 251.221 272.338c3.921 4.313 6.322 10.068 6.322 16.385 0 13.391-10.789 24.261-24.149 24.394zM894.293 439.182c-13.266-0.267-23.919-11.085-23.919-24.39 0-4.418 1.174-8.562 3.229-12.138 18.047-30.512 28.747-67.382 28.747-106.753 0-117.431-95.197-212.628-212.628-212.628-72.154 0-135.914 35.939-174.354 90.894-4.18 9.686-12.893 15.904-23.057 15.904-13.473 0-24.395-10.922-24.395-24.395 0-6.996 2.945-13.305 7.663-17.753 47.479-70.624 127.066-116.465 217.358-116.465 144.175 0 261.052 116.877 261.052 261.052 0 50.044-14.081 96.799-38.498 136.518-3.749 5.714-11.326 10.186-19.947 10.186-0.441 0-0.878-0.012-1.312-0.035zM900.483 855.335h-796.262c-12.128-1.537-21.412-11.79-21.412-24.211s9.284-22.675 21.292-24.199l796.383-0.013c12.128 1.537 21.412 11.79 21.412 24.212s-9.284 22.675-21.292 24.199zM764.314 991.505h-524.288c-0.895 0.116-1.931 0.182-2.982 0.182-13.473 0-24.395-10.922-24.395-24.395 0-13.473 10.922-24.395 24.395-24.395 1.051 0 2.086 0.066 3.103 0.195l524.167-0.013c0.895-0.116 1.931-0.183 2.982-0.183 13.473 0 24.395 10.922 24.395 24.395 0 13.473-10.922 24.395-24.395 24.395-1.051 0-2.086-0.066-3.103-0.195z"  /></svg>