<?xml version="1.0" standalone="no"?><!DOCTYPE svg PUBLIC "-//W3C//DTD SVG 1.1//EN" "http://www.w3.org/Graphics/SVG/1.1/DTD/svg11.dtd"><svg class="icon" width="200px" height="200.00px" viewBox="0 0 1024 1024" version="1.1" xmlns="http://www.w3.org/2000/svg"><path fill="#333333" d="M514.092 5.819c-279.188 0-504.089 224.901-504.089 504.089s224.901 504.089 504.089 504.089 504.089-224.901 504.089-504.089-224.901-504.089-504.089-504.089zM514.092 975.223c-255.923 0-465.315-209.392-465.315-465.315s209.392-465.315 465.315-465.315 465.315 209.392 465.315 465.315-209.392 465.315-465.315 465.315z"  /><path fill="#333333" d="M798.449 341.88c-7.755-7.755-20.68-7.755-28.435 0l-286.943 289.529c-7.755 7.755-20.681 7.755-28.436 0l-178.37-180.955c-7.755-7.755-20.681-7.755-28.436 0s-7.755 20.68 0 28.435l178.37 180.956c23.266 23.266 59.456 23.266 82.723 0l286.943-289.53c10.341-7.755 10.341-20.68 2.585-28.435z"  /></svg>