<?xml version="1.0" standalone="no"?><!DOCTYPE svg PUBLIC "-//W3C//DTD SVG 1.1//EN" "http://www.w3.org/Graphics/SVG/1.1/DTD/svg11.dtd"><svg class="icon" width="200px" height="200.00px" viewBox="0 0 1024 1024" version="1.1" xmlns="http://www.w3.org/2000/svg"><path fill="#333333" d="M512 31.464c262.059 0 475.203 213.207 475.203 475.203s-213.144 475.203-475.203 475.203-475.203-213.144-475.203-475.203 213.144-475.203 475.203-475.203M512 1.736c-278.866 0-504.931 226.065-504.931 504.931s226.065 504.931 504.931 504.931 504.931-226.065 504.931-504.931-226.065-504.931-504.931-504.931z"  /><path fill="#333333" d="M512 761.594c-12.305 0-22.28-9.975-22.28-22.28v-13.507c0-12.305 9.975-22.28 22.28-22.28s22.28 9.975 22.28 22.28v13.507c0 12.305-9.975 22.28-22.28 22.28zM512 673.168c-8.192 0-14.833-6.641-14.833-14.833v-87.669c0-8.205 6.628-14.833 14.833-14.833 81.799 0 148.323-66.525 148.323-148.323s-66.525-148.323-148.323-148.323-148.323 66.525-148.323 148.323c0 8.192-6.641 14.833-14.833 14.833s-14.833-6.641-14.833-14.833c0-98.146 79.842-177.988 178.051-177.988s177.988 79.842 177.988 177.988c-0.129 93.045-71.507 169.381-162.494 177.373l-0.662 73.45c-0.036 8.199-6.691 14.833-14.895 14.833z"  /></svg>